<?xml version="1.0" standalone="no"?>
<!DOCTYPE svg PUBLIC "-//W3C//DTD SVG 20010904//EN"
 "http://www.w3.org/TR/2001/REC-SVG-20010904/DTD/svg10.dtd">
<svg version="1.0" xmlns="http://www.w3.org/2000/svg"
 width="500.000000pt" height="500.000000pt" viewBox="0 0 500.000000 500.000000"
 preserveAspectRatio="xMidYMid meet">
<metadata>
Created by potrace 1.14, written by Peter Selinger 2001-2017
</metadata>
<g transform="translate(0.000000,500.000000) scale(0.100000,-0.100000)"
fill="#000000" stroke="none">
<path d="M2185 4975 c-165 -22 -301 -54 -475 -111 -741 -246 -1328 -833 -1574
-1574 -92 -279 -126 -491 -126 -790 0 -299 34 -511 126 -790 246 -741 833
-1328 1574 -1574 279 -92 491 -126 790 -126 280 0 502 33 747 111 245 79 421
163 633 304 609 404 1005 1046 1096 1775 18 147 18 453 0 600 -68 545 -302
1035 -681 1429 -397 413 -923 675 -1495 747 -141 17 -477 17 -615 -1z m-433
-1390 c294 -44 503 -200 629 -469 20 -44 40 -93 44 -108 6 -24 4 -28 -32 -37
-69 -19 -214 -51 -226 -51 -7 0 -19 17 -26 38 -20 59 -71 153 -105 197 -110
140 -245 199 -456 198 -410 -3 -643 -247 -690 -723 -21 -203 16 -464 88 -620
93 -205 270 -331 506 -360 277 -34 519 90 630 324 24 50 49 114 56 141 7 28
16 54 20 58 7 8 258 -50 273 -62 11 -10 -45 -168 -92 -258 -135 -259 -384
-419 -696 -448 -93 -8 -301 10 -400 35 -243 61 -432 223 -550 471 -87 186
-126 369 -126 599 -1 342 86 595 270 792 207 222 553 333 883 283z m2608 -150
l0 -125 -630 0 -630 0 0 -325 0 -325 590 0 590 0 0 -125 0 -125 -590 0 -590 0
0 -360 0 -360 655 0 655 0 0 -125 0 -125 -795 0 -795 0 0 1060 0 1060 770 0
770 0 0 -125z"/>
</g>
</svg>
